# xmcd
#
# Track frame offsets: 
#        150
#        13716
#        27561
#        41001
#        54375
#        67430
#        81313
#        94386
#        108843
#        119961
#        133383
#        147801
#        163736
#        177073
#        189226
#        202124
#        215669
#        226883
#        239945
#        252350
#        265541
#        277627
#        289949
#        302425
#
# Disc length: 4212 seconds
#
# Revision: 0
# Processed by: cddbd v1.5.2PL0 Copyright (c) Steve Scherf et al.
# Submitted via: ExactAudioCopy v0.99pb4
#
DISCID=73107218
DTITLE=bukka white - aberdeen mississippi blues
DYEAR=2007
DGENRE=Blues
TTITLE0=the new 'frisco train
TTITLE1=the panama limited
TTITLE2=i am in the heavenly way
TTITLE3=promise true and grand
TTITLE4=pinebluff arkansas
TTITLE5=shake 'em on down
TTITLE6=new shake 'em on down
TTITLE7=shake 'em on down
TTITLE8=sic 'em dogs on
TTITLE9=po' boy
TTITLE10=new shake 'em on down
TTITLE11=break 'em on down
TTITLE12=black train blues
TTITLE13=parchman blues
TTITLE14=strange place blues
TTITLE15=when can i change my clothes
TTITLE16=good gin blues
TTITLE17=sleepy man blues
TTITLE18=fixin' to die blues
TTITLE19=high fever blues
TTITLE20=aberdeen mississippi blues
TTITLE21=bukka's jitterbug swing
TTITLE22=district attorney blues
TTITLE23=special stream line
EXTD=
EXTT0=
EXTT1=
EXTT2=
EXTT3=
EXTT4=
EXTT5=
EXTT6=
EXTT7=
EXTT8=
EXTT9=
EXTT10=
EXTT11=
EXTT12=
EXTT13=
EXTT14=
EXTT15=
EXTT16=
EXTT17=
EXTT18=
EXTT19=
EXTT20=
EXTT21=
EXTT22=
EXTT23=
PLAYORDER=
